<svg width="150" height="37" viewBox="0 0 150 37" fill="none" xmlns="http://www.w3.org/2000/svg">
<path d="M20.824 34.1834H0.000244141V34.6316H20.824V34.1834Z" fill="black"/>
<path d="M150 34.1834H129.176V34.6316H150V34.1834Z" fill="black"/>
<path d="M29.6765 36.8105C29.3216 36.6922 29.0477 36.5428 28.8423 36.356L29.11 35.7957C29.303 35.97 29.5457 36.107 29.8508 36.2191C30.1496 36.3249 30.4609 36.3809 30.7784 36.3809C31.1955 36.3809 31.5067 36.3124 31.7122 36.1693C31.9176 36.0261 32.0234 35.8393 32.0234 35.6027C32.0234 35.4284 31.9674 35.2915 31.8554 35.1794C31.7433 35.0736 31.6063 34.9864 31.4383 34.9304C31.2702 34.8744 31.0398 34.8059 30.7348 34.7374C30.355 34.644 30.05 34.5569 29.8197 34.4635C29.5893 34.3701 29.3901 34.2332 29.222 34.0402C29.0539 33.8534 28.973 33.592 28.973 33.2745C28.973 33.0068 29.0415 32.764 29.1847 32.5461C29.3279 32.3282 29.5395 32.1601 29.8259 32.0294C30.1123 31.8987 30.4733 31.8364 30.8966 31.8364C31.1955 31.8364 31.4881 31.8738 31.7744 31.9547C32.0608 32.0294 32.3098 32.1415 32.5152 32.2846L32.2787 32.8574C32.067 32.7204 31.8429 32.6208 31.6001 32.5523C31.3573 32.4838 31.127 32.4465 30.8966 32.4465C30.4858 32.4465 30.1807 32.5212 29.9815 32.6706C29.7761 32.82 29.6765 33.013 29.6765 33.2496C29.6765 33.4239 29.7325 33.5608 29.8508 33.6729C29.9628 33.7787 30.106 33.8659 30.2803 33.9219C30.4484 33.9842 30.685 34.0464 30.9776 34.1149C31.3573 34.2083 31.6624 34.2954 31.8927 34.3888C32.123 34.4822 32.3223 34.6191 32.4841 34.8059C32.646 34.9927 32.7331 35.2479 32.7331 35.5592C32.7331 35.8206 32.6584 36.0634 32.5152 36.2813C32.3721 36.4992 32.1542 36.6735 31.8616 36.798C31.569 36.9225 31.2079 36.991 30.7846 36.991C30.3986 36.9848 30.0313 36.9287 29.6765 36.8105Z" fill="black"/>
<path d="M43.1669 34.6876L42.2456 35.6214V36.9225H41.5234V31.88H42.2456V34.6938L44.9785 31.88H45.8003L43.6463 34.146L45.9372 36.9163H45.0968L43.1669 34.6876Z" fill="black"/>
<path d="M54.4471 31.8862H55.1693V36.9287H54.4471V31.8862Z" fill="black"/>
<path d="M68.7592 31.8862V36.9287H68.1678L65.1423 33.1686V36.9287H64.4202V31.8862H65.0116L68.0371 35.6463V31.8862H68.7592Z" fill="black"/>
<path d="M78.8131 36.7171C78.452 36.5428 78.1781 36.2938 77.9851 35.97C77.7921 35.6525 77.6987 35.279 77.6987 34.8557C77.6987 34.2954 77.8232 33.7849 78.0785 33.3243C78.3337 32.8636 78.6948 32.4963 79.1617 32.2286C79.6286 31.9609 80.1702 31.824 80.7865 31.824C81.2036 31.824 81.5709 31.8924 81.8946 32.0294C82.2183 32.1664 82.4611 32.3593 82.6354 32.6084L82.1187 33.0566C81.8137 32.6644 81.353 32.4652 80.7367 32.4652C80.2698 32.4652 79.8652 32.571 79.5103 32.7827C79.1617 32.9943 78.8878 33.2807 78.701 33.6355C78.5143 33.9904 78.4146 34.3826 78.4146 34.8121C78.4146 35.279 78.5641 35.6463 78.8629 35.9265C79.1617 36.2004 79.5912 36.3436 80.1453 36.3436C80.7616 36.3436 81.2721 36.1443 81.6705 35.7459L82.0876 36.2191C81.8573 36.4681 81.5709 36.6611 81.2285 36.7856C80.8861 36.9163 80.5064 36.9785 80.0955 36.9785C79.5975 36.9848 79.1679 36.8976 78.8131 36.7171Z" fill="black"/>
<path d="M94.0964 35.665H91.4008L90.604 36.9225H89.8258L93.1252 31.88H93.8349L95.1111 36.9225H94.3952L94.0964 35.665ZM93.9532 35.0923L93.3556 32.6084L91.7743 35.0923H93.9532Z" fill="black"/>
<path d="M107.954 34.6005C107.693 34.9304 107.319 35.1607 106.84 35.2853L107.761 36.9287H106.995L106.118 35.3911H105.981H104.636L104.331 36.9287H103.603L104.611 31.8862H106.491C107.083 31.8862 107.537 32.0169 107.861 32.2722C108.184 32.5274 108.346 32.8947 108.346 33.3616C108.352 33.8596 108.222 34.2705 107.954 34.6005ZM107.207 34.4324C107.487 34.202 107.63 33.8659 107.63 33.4301C107.63 33.1251 107.525 32.9009 107.319 32.7453C107.114 32.5897 106.815 32.515 106.429 32.515H105.215L104.76 34.7748H106.006C106.522 34.7748 106.921 34.6627 107.207 34.4324Z" fill="black"/>
<path d="M118.182 32.515L117.871 34.0651H120.405L120.28 34.6752H117.747L117.423 36.3H120.367L120.243 36.9287H116.576L117.585 31.8862H121.139L121.015 32.515H118.182Z" fill="black"/>
<path d="M6.44353 26.0904C2.24765 26.0904 0.205737 24.7022 0.205737 24.7022V20.2697H0.653962C1.2765 22.5544 3.24993 25.6422 6.44353 25.6422C8.90255 25.6422 9.38812 22.6603 6.7548 20.9296L3.25616 18.8192C-0.0681782 16.7026 -0.939726 13.5837 1.07106 11.1621C1.07106 11.1621 2.35348 9.46254 6.05756 9.46254C10.0418 9.46254 11.7413 10.4648 11.7413 10.4648V14.1751H11.2931C10.7701 12.0274 8.86519 9.91076 6.05756 9.91076C3.80399 9.91076 2.80171 12.3698 5.81477 14.2747L9.31342 16.4598C12.4323 18.3648 13.335 21.8323 11.5296 24.2228C11.5359 24.2228 10.2223 26.0904 6.44353 26.0904Z" fill="black"/>
<path d="M20.8241 17.4621C20.9611 21.7949 22.6606 23.3513 24.9827 23.8742C26.7818 24.2913 29.3466 23.426 30.1123 21.135L30.5606 21.3094C30.075 23.4945 27.7903 26.0904 23.2831 26.0904C18.7449 26.0904 15.3458 22.212 15.3458 17.8418C15.3458 12.4382 19.2616 9.4563 23.7687 9.4563C28.1327 9.4563 31.0461 11.4982 31.0461 17.4621H20.8241ZM26.4332 17.0139C26.4332 12.6499 25.4994 9.91075 23.7625 9.91075C21.926 9.91075 20.8179 13.6895 20.8179 17.0139H26.4332Z" fill="black"/>
<path d="M94.3142 17.4621C94.4512 21.7949 96.1507 23.3513 98.4728 23.8742C100.272 24.2913 102.837 23.426 103.602 21.135L104.051 21.3094C103.565 23.4945 101.28 26.0904 96.7733 26.0904C92.235 26.0904 88.8359 22.212 88.8359 17.8418C88.8359 12.4382 92.7517 9.4563 97.2588 9.4563C101.623 9.4563 104.536 11.4982 104.536 17.4621H94.3142ZM99.9295 17.0139C99.9295 12.6499 98.9957 9.91075 97.2588 9.91075C95.4224 9.91075 94.3142 13.6895 94.3142 17.0139H99.9295Z" fill="black"/>
<path d="M149.963 25.7792H144.316C141.926 25.7792 141.646 25.1566 139.292 21.6891C138.253 20.1639 137.319 18.7445 137.319 18.7445L140.992 14.8973C141.751 14.1004 144.422 10.1473 141.098 10.222V9.7738H150V10.222C148.718 10.2594 144.665 11.3675 140.818 15.8373C143.382 19.4418 146.327 23.1458 146.327 23.1458C147.473 24.7395 148.892 25.3309 149.963 25.3309V25.7792Z" fill="black"/>
<path d="M136.659 21.7264V16.217V11.4235V7.62604L129.761 9.01429V9.43139C131.181 9.95432 131.56 10.471 131.56 11.685V16.2232V21.7327C131.56 23.5318 131.492 24.9885 130.172 25.3683V25.7854H138.072V25.3683C136.827 25.0197 136.659 23.6314 136.659 21.7264Z" fill="black"/>
<path d="M85.6174 21.6891V14.7977C85.6174 10.6391 83.3638 9.46254 80.5935 9.46254C78.5143 9.46254 76.1237 11.2305 75.3642 13.0981V10.166V8.43536V4.40134L68.4666 5.85807V6.30629C69.8859 6.82922 70.2657 7.24009 70.2657 8.45404V10.1598V21.6891C70.2657 23.4571 70.1972 24.945 68.8774 25.3247V25.7729H76.7774V25.3247C75.5323 25.0135 75.358 23.5941 75.358 21.6891V13.8265C75.9494 12.7184 76.989 12.0274 77.8855 12.0274C79.722 12.0274 80.5188 12.9612 80.5188 14.9408V21.6953C80.5188 23.4633 80.4503 24.9886 79.1306 25.3683V25.7854H87.0305V25.3683C85.8228 25.0508 85.6174 23.5941 85.6174 21.6891Z" fill="black"/>
<path d="M40.0853 21.7265V12.071V10.4212V4.40134L33.1938 5.78959V6.20669C34.6132 6.72962 34.993 7.24632 34.993 8.46026V10.4212V12.071V21.7265C34.993 23.5256 34.9245 24.9823 33.6047 25.3621V25.7792H41.5047V25.3621C40.2596 25.0197 40.0853 23.6314 40.0853 21.7265Z" fill="black"/>
<path d="M118.189 22.486C117.84 22.9715 117.112 23.5941 116.109 23.5941C114.235 23.5941 113.476 22.6229 113.476 20.6806V16.1672V13.7145V10.2158H117.703H117.771V9.77381H113.476V4.40134L108.384 5.1297V9.77381H106.373V10.222H106.441H108.384V13.7207V16.1735V20.7927C108.384 24.9823 110.774 26.0967 113.513 26.0967C115.941 26.0967 118.02 24.4345 118.574 22.7039L118.189 22.486Z" fill="black"/>
<path d="M67.2154 22.4859C66.8668 22.9715 66.1384 23.5941 65.1361 23.5941C63.2623 23.5941 62.5028 22.6229 62.5028 20.6806V17.4559H66.7983V17.0076H62.5028V13.3845V11.6414V7.61982L55.6051 9.07655V9.52478C57.0245 10.0477 57.4042 10.4586 57.4042 11.6725V12.3635V13.3783V17.0076H55.3934H50.2389V10.6951V10.222V9.33179C50.2575 3.04419 50.6684 0.45445 52.729 0.45445C53.9741 0.45445 54.2853 1.14546 53.7001 1.28865C53.1461 1.39448 52.6605 1.70574 52.3804 2.22245C51.789 3.29943 52.1376 4.61298 53.1772 5.23552C54.2168 5.82692 55.6051 5.44095 56.1903 4.43867C56.6074 3.67918 56.57 2.60219 56.1529 1.91118C55.6425 0.971154 54.1919 0 52.4239 0C48.0911 0 45.1154 1.73065 45.1154 9.77379V10.222V11.1558V17.0139H42.8618V17.4621H45.1154V21.8634C45.1154 23.6314 45.078 24.9823 43.7645 25.3621V25.7792H51.6645V25.3621C50.4194 25.0134 50.2451 23.7684 50.2451 21.8634V17.4621H57.4167V20.7864C57.4167 24.9761 59.8072 26.0904 62.5464 26.0904C64.9742 26.0904 67.0535 24.4283 67.6076 22.6976L67.2154 22.4859Z" fill="black"/>
<path d="M128.168 25.7791H120.268V25.3621C121.588 24.945 121.656 23.4882 121.656 21.7264V13.6522C121.656 12.4382 121.276 11.9527 119.857 11.3301V10.8819L126.755 9.46252V21.7264C126.755 23.6314 126.929 25.0197 128.174 25.3621V25.7791H128.168ZM120.996 4.81841C120.996 6.37475 122.241 7.62604 123.835 7.62604C125.391 7.62604 126.674 6.38097 126.674 4.81841C126.674 3.22472 125.391 1.97965 123.835 1.97965C122.241 1.97343 120.996 3.22472 120.996 4.81841Z" fill="black"/>
</svg>
