<svg width="18" height="18" viewBox="0 0 18 18" fill="none" xmlns="http://www.w3.org/2000/svg">
<g clip-path="url(#clip0_48_55)">
<path d="M12.75 2.57141H5.24998C4.53984 2.57226 3.85903 2.85474 3.35689 3.35689C2.85474 3.85903 2.57226 4.53984 2.57141 5.24998L2.57141 12.75C2.57226 13.4601 2.85474 14.1409 3.35689 14.6431C3.85903 15.1452 4.53984 15.4277 5.24998 15.4286H12.75C13.4601 15.4277 14.1409 15.1452 14.6431 14.6431C15.1452 14.1409 15.4277 13.4601 15.4286 12.75V5.24998C15.4277 4.53984 15.1452 3.85903 14.6431 3.35689C14.1409 2.85474 13.4601 2.57226 12.75 2.57141V2.57141ZM13.2857 8.46427H14.3571V9.5357H13.2857V8.46427ZM13.2857 7.39284V6.32141H14.3571V7.39284H13.2857ZM12.2143 8.46427H5.7857V3.64284H12.2143V8.46427ZM4.71427 9.5357H3.64284V8.46427H4.71427V9.5357ZM4.71427 7.39284H3.64284V6.32141H4.71427V7.39284ZM3.64284 10.6071H4.71427V11.6786H3.64284V10.6071ZM5.7857 9.5357H12.2143V14.3571H5.7857V9.5357ZM13.2857 10.6071H14.3571V11.6786H13.2857V10.6071ZM14.3571 5.24998H13.2857V3.74141C13.598 3.85181 13.8685 4.056 14.0603 4.32604C14.2521 4.59607 14.3558 4.91877 14.3571 5.24998ZM4.71427 3.74141V5.24998H3.64284C3.64421 4.91877 3.74788 4.59607 3.93967 4.32604C4.13146 4.056 4.402 3.85181 4.71427 3.74141ZM3.64284 12.75H4.71427V14.2586C4.402 14.1482 4.13146 13.944 3.93967 13.6739C3.74788 13.4039 3.64421 13.0812 3.64284 12.75ZM13.2857 14.2586V12.75H14.3571C14.3558 13.0812 14.2521 13.4039 14.0603 13.6739C13.8685 13.944 13.598 14.1482 13.2857 14.2586Z" fill="#AF676F"/>
</g>
<defs>
<clipPath id="clip0_48_55">
<rect width="12.8571" height="12.8571" fill="white" transform="translate(2.57141 2.57141)"/>
</clipPath>
</defs>
</svg>
